<svg version="1.2" xmlns="http://www.w3.org/2000/svg" viewBox="0 0 300 300" width="300" height="300"><style>.a{fill:#fff}</style><path  d="m150 300c-83 0-150-67.1-150-150 0-83 67-150 150-150 82.9 0 150 67 150 150 0 82.9-67.1 150-150 150z"/><path class="a" d="m212.1 70.2q13.3 6.6 13.3 14.5 0 3.6-3.4 10.9l-62.5 126.9q-2.5 5-7.7 8.2-5 2.9-10.5 2.9h-2.2q-5.7 0-10.9-2.9-5-3.2-7.5-8.2l-62.5-126.9q-3.4-7.3-3.4-10.9 0-7.9 13.4-14.5 7.4-3.9 12.6-3.9 2.7 0 4.8 0.9 2 0.9 3.6 3.2 1.8 2.3 2.7 3.9 0.9 1.6 2.8 4.9 0.2 0.5 7.2 16.1 7 15.5 15 32.9 8.1 17.5 15.2 33.1 7.2 15.4 8.1 17.2l45.3-99.3q1.9-4.2 3.2-6.5 1.6-2.5 4.3-4.3 2.7-2.1 6.4-2.1 5.2 0 12.7 3.9zm29.2 126.2q3.9 3.9 3.9 15.9v0.9q0 5.4-0.5 8.2-0.2 2.5-2.3 6.1-1.8 3.6-6.3 5.2-4.5 1.4-12.3 1.4-12.2 0-16.9-4.8-4.1-3.8-4.1-15.9v-0.9q0-5.2 0.2-7.9 0.5-2.7 2.3-6.1 1.8-3.6 6.3-5.2 4.8-1.6 12.5-1.6 12 0 17.2 4.7z"/></svg>
